<svg width="0" height="0" class="hidden">
  <symbol xmlns="http://www.w3.org/2000/svg" viewBox="0 0 512 512" id="aud">
    <path d="M512 256c0 141.384-114.616 256-256 256S0 397.384 0 256C0 256.06 256 .029 256 0c141.384 0 256 114.616 256 256z" fill="#0052b4"></path>
    <g fill="#f0f0f0">
      <path d="M256 0l-.043.001L256 0zm-.685 256H256v-.685l-.685.685z"></path>
      <path d="M256 133.566V.001h-.043C114.592.024 0 114.629 0 256h133.565v-75.212L208.777 256h46.539l.685-.685v-46.536l-75.213-75.213H256z"></path>
    </g>
    <g fill="#d80027">
      <path d="M129.515 33.391a257.222 257.222 0 0 0-96.124 96.124V256h66.783V100.174H256V33.391H129.515z"></path>
      <path d="M256 224.519l-90.953-90.952h-31.481c0-.001 0 0 0 0L255.999 256H256v-31.481z"></path>
    </g>
    <path d="M154.395 300.522l14.05 29.378 31.727-7.333-14.208 29.302 25.514 20.233-31.767 7.16.089 32.564-25.405-20.373-25.404 20.373.089-32.564-31.768-7.16 25.515-20.233-14.21-29.302 31.729 7.333zm228.889 55.652l7.025 14.689 15.864-3.667-7.105 14.651 12.758 10.117-15.884 3.58.044 16.282-12.702-10.187-12.702 10.187.044-16.282-15.883-3.58 12.757-10.117-7.104-14.651 15.863 3.667zm-65.351-155.826l7.024 14.69 15.864-3.668-7.104 14.651 12.757 10.117-15.883 3.58.043 16.282-12.701-10.187L305.231 256l.043-16.282-15.883-3.58 12.757-10.117-7.104-14.651 15.864 3.668zm65.351-89.044l7.025 14.69 15.864-3.667-7.104 14.651 12.756 10.116-15.883 3.581.044 16.282-12.702-10.187-12.702 10.187.044-16.282-15.883-3.581 12.756-10.116-7.103-14.651 15.863 3.667zm57.084 66.783l7.024 14.69 15.864-3.668-7.104 14.651 12.757 10.117-15.884 3.581.044 16.281-12.701-10.186-12.702 10.186.043-16.281-15.883-3.581 12.757-10.117-7.104-14.651 15.863 3.668zM399.55 256l5.525 17.006h17.882l-14.467 10.511 5.527 17.005-14.467-10.51-14.466 10.51 5.525-17.005-14.466-10.511h17.881z"
      fill="#f0f0f0"></path>
  </symbol>
  <symbol xmlns="http://www.w3.org/2000/svg" viewBox="0 0 512 512" id="bgn">
    <path d="M512 256c0-31.314-5.632-61.311-15.923-89.043L256 155.826l-240.077 11.13C5.633 194.689 0 224.686 0 256s5.633 61.311 15.923 89.043L256 356.174l240.077-11.13C506.368 317.311 512 287.314 512 256z" fill="#496e2d"></path>
    <path d="M256 512c110.071 0 203.906-69.472 240.077-166.957H15.923C52.094 442.528 145.929 512 256 512z" fill="#d80027"></path>
    <path d="M15.923 166.957h480.155C459.906 69.472 366.071 0 256 0S52.094 69.472 15.923 166.957z" fill="#f0f0f0"></path>
  </symbol>
  <symbol xmlns="http://www.w3.org/2000/svg" viewBox="0 0 512 512" id="brl">
    <circle cx="256" cy="256" r="256" fill="#6da544"></circle>
    <path fill="#ffda44" d="M256 100.174L467.478 256 256 411.826 44.522 256z"></path>
    <circle cx="256" cy="256" r="89.043" fill="#f0f0f0"></circle>
    <path d="M211.478 250.435c-15.484 0-30.427 2.355-44.493 6.725.623 48.64 40.227 87.884 89.015 87.884 30.168 0 56.812-15.017 72.919-37.968-27.557-34.497-69.958-56.641-117.441-56.641zm131.915 22.625a89.45 89.45 0 0 0 1.651-17.06c0-49.178-39.866-89.043-89.043-89.043-36.694 0-68.194 22.201-81.826 53.899a183.693 183.693 0 0 1 37.305-3.812c51.717-.001 98.503 21.497 131.913 56.016z"
      fill="#0052b4"></path>
  </symbol>
  <symbol xmlns="http://www.w3.org/2000/svg" viewBox="0 0 512 512" id="cad">
    <circle cx="256" cy="256" r="256" fill="#f0f0f0"></circle>
    <path d="M512 256c0-101.494-59.065-189.19-144.696-230.598v461.195C452.935 445.19 512 357.494 512 256zM0 256c0 101.494 59.065 189.19 144.696 230.598V25.402C59.065 66.81 0 154.506 0 256zm300.522 33.391l44.521-22.261-22.26-11.13v-22.261L278.261 256l22.261-44.522h-22.261L256 178.087l-22.261 33.391h-22.261L233.739 256l-44.522-22.261V256l-22.26 11.13 44.521 22.261-11.13 22.261h44.522v33.391h22.26v-33.391h44.522z"
      fill="#d80027"></path>
  </symbol>
  <symbol xmlns="http://www.w3.org/2000/svg" viewBox="0 0 512 512" id="chf">
    <circle cx="256" cy="256" r="256" fill="#d80027"></circle>
    <path fill="#f0f0f0" d="M389.565 211.479h-89.043v-89.044h-89.044v89.044h-89.043v89.043h89.043v89.043h89.044v-89.043h89.043z"></path>
  </symbol>
  <symbol xmlns="http://www.w3.org/2000/svg" viewBox="-49 141 512 512" id="cny">
    <circle cx="207" cy="397" r="256" fill="#d80027"></circle>
    <path d="M91.1 296.8l22.1 68h71.5l-57.8 42.1 22.1 68-57.9-42-57.9 42 22.2-68-57.9-42.1H69zm163.4 240.7l-16.9-20.8-25 9.7 14.5-22.5-16.9-20.9 25.9 6.9 14.6-22.5 1.4 26.8 26 6.9-25.1 9.6zm33.6-61l8-25.6-21.9-15.5 26.8-.4 7.9-25.6 8.7 25.4 26.8-.3-21.5 16 8.6 25.4-21.9-15.5zm45.3-147.6L321.6 353l19.2 18.7-26.5-3.8-11.8 24-4.6-26.4-26.6-3.8 23.8-12.5-4.6-26.5 19.2 18.7zm-78.2-73l-2 26.7 24.9 10.1-26.1 6.4-1.9 26.8-14.1-22.8-26.1 6.4 17.3-20.5-14.2-22.7 24.9 10.1z"></path>
  </symbol>
  <symbol xmlns="http://www.w3.org/2000/svg" viewBox="0 0 473.719 473.719" id="czk">
    <path d="M.021 236.842c0-40.593 10.209-78.8 28.204-112.195l445.473 112.195L33.479 358.274C12.234 322.766.021 281.227.021 236.842z" fill="#14477d"></path>
    <path d="M334.956 236.842h138.742C473.697 106.032 367.662 0 236.855 0c65.402 0 98.101 118.421 98.101 236.842z" fill="#efecec"></path>
    <path d="M236.855 473.681c-1.399 0-2.764-.022-4.147-.037 1.384.03 2.76.075 4.147.075 130.807 0 236.842-106.032 236.842-236.838H334.956c-.004 118.405-32.707 236.8-98.101 236.8z" fill="#d32027"></path>
    <path d="M28.228 124.647l208.631 112.195h98.097C334.956 118.421 302.257 0 236.855 0 146.646 0 68.215 50.432 28.228 124.647z" fill="#f3f4f5"></path>
    <path d="M334.956 236.88h-98.097L27.757 348.195c39.232 73.55 116.14 123.926 204.951 125.451 1.384.015 2.749.037 4.147.037 65.394-.002 98.097-118.397 98.101-236.803z" fill="#db2f2a"></path>
  </symbol>
  <symbol xmlns="http://www.w3.org/2000/svg" viewBox="0 0 512 512" id="dkk">
    <circle cx="256" cy="256" r="256" fill="#f0f0f0"></circle>
    <path d="M200.349 222.609h309.484C493.47 97.002 386.067 0 256 0a256.902 256.902 0 0 0-55.652 6.085v216.524h.001zm-66.784-.001V31.127C63.272 69.481 12.95 139.832 2.167 222.609h131.398v-.001zm-.001 66.783H2.167c10.783 82.777 61.105 153.128 131.398 191.481l-.001-191.481zm66.784.001v216.523A256.902 256.902 0 0 0 256 512c130.067 0 237.47-97.002 253.833-222.609H200.348v.001z"
      fill="#d80027"></path>
  </symbol>
  <symbol xmlns="http://www.w3.org/2000/svg" viewBox="0 0 512 512" id="eur">
    <circle cx="256" cy="256" r="256" fill="#0052b4"></circle>
    <path d="M256.001 100.174l8.289 25.509h26.82l-21.699 15.765 8.289 25.509-21.699-15.766-21.7 15.766 8.289-25.509-21.699-15.765h26.821zm-110.187 45.64l23.9 12.176 18.965-18.964-4.197 26.49 23.899 12.177-26.491 4.196-4.196 26.492-12.177-23.899-26.49 4.197 18.965-18.965zM100.175 256l25.509-8.289V220.89l15.764 21.7 25.51-8.289L151.191 256l15.767 21.699-25.51-8.288-15.764 21.699v-26.821zm45.639 110.186l12.177-23.9-18.964-18.965 26.491 4.198 12.175-23.899 4.197 26.491 26.49 4.196-23.896 12.177 4.195 26.49-18.965-18.965zm110.187 45.64l-8.29-25.509h-26.82l21.7-15.765-8.29-25.507 21.7 15.764 21.699-15.764-8.289 25.507 21.699 15.765h-26.821zm110.186-45.64l-23.899-12.176-18.966 18.965 4.197-26.492-23.897-12.176 26.49-4.196 4.196-26.491 12.176 23.899 26.49-4.198-18.965 18.967zM411.826 256l-25.509 8.289v26.821l-15.765-21.7-25.507 8.289L360.81 256l-15.765-21.699 25.508 8.289 15.764-21.7v26.822zm-45.639-110.186l-12.177 23.9 18.965 18.965-26.492-4.198-12.175 23.899-4.196-26.491-26.49-4.197 23.897-12.176-4.197-26.489 18.967 18.964z"
      fill="#ffda44"></path>
  </symbol>
  <symbol xmlns="http://www.w3.org/2000/svg" viewBox="0 0 512 512" id="gbp">
    <circle cx="256" cy="256" r="256" fill="#f0f0f0"></circle>
    <path d="M52.92 100.142c-20.109 26.163-35.272 56.318-44.101 89.077h133.178L52.92 100.142zm450.261 89.077c-8.829-32.758-23.993-62.913-44.101-89.076l-89.075 89.076h133.176zM8.819 322.784c8.83 32.758 23.993 62.913 44.101 89.075l89.074-89.075H8.819zM411.858 52.921c-26.163-20.109-56.317-35.272-89.076-44.102v133.177l89.076-89.075zM100.142 459.079c26.163 20.109 56.318 35.272 89.076 44.102V370.005l-89.076 89.074zm89.075-450.26c-32.758 8.83-62.913 23.993-89.075 44.101l89.075 89.075V8.819zm133.566 494.362c32.758-8.83 62.913-23.993 89.075-44.101l-89.075-89.075v133.176zm47.222-180.397l89.075 89.076c20.108-26.162 35.272-56.318 44.101-89.076H370.005z"
      fill="#0052b4"></path>
    <g fill="#d80027">
      <path d="M509.833 222.609H289.392V2.167A258.556 258.556 0 0 0 256 0c-11.319 0-22.461.744-33.391 2.167v220.441H2.167A258.556 258.556 0 0 0 0 256c0 11.319.744 22.461 2.167 33.391h220.441v220.442a258.35 258.35 0 0 0 66.783 0V289.392h220.442A258.533 258.533 0 0 0 512 256c0-11.317-.744-22.461-2.167-33.391z"></path>
      <path d="M322.783 322.784L437.019 437.02a256.636 256.636 0 0 0 15.048-16.435l-97.802-97.802h-31.482v.001zm-133.566 0h-.002L74.98 437.019a256.636 256.636 0 0 0 16.435 15.048l97.802-97.804v-31.479zm0-133.565v-.002L74.981 74.98a256.636 256.636 0 0 0-15.048 16.435l97.803 97.803h31.481zm133.566 0L437.02 74.981a256.328 256.328 0 0 0-16.435-15.047l-97.802 97.803v31.482z"></path>
    </g>
  </symbol>
  <symbol xmlns="http://www.w3.org/2000/svg" viewBox="0 0 512 512" id="hkd">
    <circle cx="256" cy="256" r="256" fill="#d80027"></circle>
    <path d="M282.43 193.668c-5.818 24.199-16.155 19.584-21.228 40.688-29.883-7.185-48.287-37.235-41.102-67.12 7.182-29.883 37.235-48.287 67.119-41.102-10.147 42.207.416 45.891-4.789 67.534zM204.887 211.6c21.217 13.01 13.633 21.417 32.135 32.764-16.068 26.201-50.333 34.416-76.535 18.349-26.201-16.067-34.418-50.334-18.35-76.535 37.006 22.692 43.771 13.785 62.75 25.422zm-6.909 79.292c18.931-16.158 24.58-6.348 41.089-20.438 19.955 23.377 17.179 58.505-6.197 78.46-23.378 19.955-58.506 17.176-78.458-6.199 33.014-28.183 26.633-37.372 43.566-51.823zm73.276 31.073c-9.52-22.997 1.556-25.341-6.743-45.394 28.399-11.753 60.951 1.741 72.705 30.14 11.753 28.399-1.743 60.95-30.142 72.704-16.597-40.109-27.306-36.88-35.82-57.45zm52.196-60.089c-24.813 1.947-23.622-9.313-45.257-7.615-2.403-30.639 20.491-57.43 51.132-59.835 30.64-2.399 57.43 20.493 59.832 51.135-43.277 3.393-43.516 14.576-65.707 16.315z"
      fill="#f0f0f0"></path>
  </symbol>
  <symbol xmlns="http://www.w3.org/2000/svg" viewBox="0 0 512 512" id="hrk">
    <path d="M512 256c0-31.314-5.633-61.311-15.923-89.043L256 155.826l-240.077 11.13C5.633 194.689 0 224.686 0 256s5.633 61.311 15.923 89.043L256 356.174l240.077-11.13C506.367 317.311 512 287.314 512 256z" fill="#f0f0f0"></path>
    <path d="M256 512c110.071 0 203.906-69.472 240.077-166.957H15.923C52.094 442.528 145.929 512 256 512z" fill="#0052b4"></path>
    <path d="M15.923 166.957h480.155C459.906 69.472 366.071 0 256 0S52.094 69.472 15.923 166.957z" fill="#d80027"></path>
    <path d="M322.783 178.088h-44.522l7.421-55.653 29.68-22.261 29.681 22.261v44.522zm-133.566 0h44.522l-7.421-55.653-29.681-22.261-29.68 22.261v44.522z" fill="#338af3"></path>
    <path fill="#0052b4" d="M285.682 178.088h-59.364v-55.653L256 100.174l29.682 22.261z"></path>
    <path d="M166.957 166.958v122.434c0 29.153 14.082 55.079 35.802 71.332l15.583-3.899 19.664 19.782a89.098 89.098 0 0 0 17.995 1.829c6.13 0 12.117-.623 17.901-1.809l22.447-18.69 12.892 2.751c21.711-16.252 35.803-42.151 35.803-71.296V166.958H166.957z"
      fill="#f0f0f0"></path>
    <path d="M166.957 166.957h35.617v35.617h-35.617zm71.234 0h35.617v35.617h-35.617zm71.235 0h35.617v35.617h-35.617zm-106.852 35.617h35.617v35.617h-35.617zm71.235 0h35.617v35.617h-35.617zM166.957 238.18h35.617v35.617h-35.617zm35.617 35.618h35.617v35.617h-35.617zm35.617-35.618h35.617v35.617h-35.617zm71.235 0h35.617v35.617h-35.617zm-35.617 35.618h35.617v35.617h-35.617zm-35.618 35.617h35.617v35.617h-35.617zm-35.617.003h-33.319c3.056 13.24 9.064 25.355 17.302 35.617h16.017v-35.617zm106.852 35.618h16.016a88.75 88.75 0 0 0 17.302-35.617h-33.318v35.617zm-106.852 0v15.541c10.359 7.795 22.465 13.384 35.617 16.066v-31.607h-35.617zm71.235 0v31.607c13.153-2.68 25.258-8.271 35.617-16.066v-15.541h-35.617z"
      fill="#d80027"></path>
  </symbol>
  <symbol xmlns="http://www.w3.org/2000/svg" viewBox="0 0 512 512" id="huf">
    <path d="M15.923 166.957C5.633 194.691 0 224.686 0 256s5.633 61.311 15.923 89.043L256 367.304l240.077-22.261C506.367 317.311 512 287.314 512 256s-5.633-61.309-15.923-89.043L256 144.696 15.923 166.957z" fill="#f0f0f0"></path>
    <path d="M256 0C145.93 0 52.094 69.472 15.924 166.957h480.155C459.906 69.472 366.072 0 256 0z" fill="#d80027"></path>
    <path d="M256 512c110.072 0 203.906-69.472 240.078-166.957H15.924C52.094 442.528 145.93 512 256 512z" fill="#6da544"></path>
  </symbol>
  <symbol xmlns="http://www.w3.org/2000/svg" viewBox="0 0 512 512" id="idr">
    <circle cx="256" cy="256" r="256" fill="#f0f0f0"></circle>
    <path d="M0 256C0 114.616 114.616 0 256 0s256 114.616 256 256" fill="#a2001d"></path>
  </symbol>
  <symbol xmlns="http://www.w3.org/2000/svg" viewBox="0 0 512 512" id="ils">
    <circle cx="256" cy="256" r="256" fill="#f0f0f0"></circle>
    <path d="M352.393 200.348H288.13L256 144.696l-32.129 55.652h-64.264L191.741 256l-32.134 55.652h64.264L256 367.304l32.13-55.652h64.263L320.259 256l32.134-55.652zM295.475 256l-19.736 34.188h-39.475L216.525 256l19.738-34.188h39.475L295.475 256zM256 187.623l7.346 12.724h-14.69L256 187.623zm-59.214 34.189h14.692l-7.346 12.724-7.346-12.724zm0 68.376l7.347-12.724 7.346 12.724h-14.693zM256 324.376l-7.345-12.724h14.691L256 324.376zm59.214-34.188h-14.692l7.347-12.724 7.345 12.724zm-14.692-68.376h14.692l-7.346 12.724-7.346-12.724zm114.835-166.16H96.643a257.293 257.293 0 0 0-59.069 66.783h436.852a257.346 257.346 0 0 0-59.069-66.783zM96.643 456.348h318.713a257.293 257.293 0 0 0 59.069-66.783H37.574a257.346 257.346 0 0 0 59.069 66.783z"
      fill="#0052b4"></path>
  </symbol>
  <symbol xmlns="http://www.w3.org/2000/svg" viewBox="0 0 512 512" id="inr">
    <circle cx="256" cy="256" r="256" fill="#f0f0f0"></circle>
    <path d="M256 0C154.506 0 66.81 59.065 25.402 144.696h461.195C445.19 59.065 357.493 0 256 0z" fill="#ff9811"></path>
    <path d="M256 512c101.493 0 189.19-59.065 230.598-144.696H25.402C66.81 452.935 154.506 512 256 512z" fill="#6da544"></path>
    <circle cx="256" cy="256" r="89.043" fill="#0052b4"></circle>
    <circle cx="256" cy="256" r="55.652" fill="#f0f0f0"></circle>
    <path fill="#0052b4" d="M256 187.326l17.169 38.938 42.304-4.601L290.337 256l25.136 34.337-42.304-4.601L256 324.674l-17.169-38.938-42.304 4.6L221.663 256l-25.136-34.337 42.304 4.601z"></path>
  </symbol>
  <symbol xmlns="http://www.w3.org/2000/svg" viewBox="0 0 512 512" id="isk">
    <circle cx="256" cy="256" r="256" fill="#f0f0f0"></circle>
    <path d="M8.819 322.783c14.812 54.959 47.457 102.593 91.355 136.322V322.783H8.819zm224.92 188.243A259.29 259.29 0 0 0 256 512c118.279 0 217.805-80.221 247.181-189.217H233.739v188.243zm269.442-321.809C473.805 80.221 374.279 0 256 0c-7.502 0-14.923.342-22.261.974v188.243h269.442zM100.174 52.895c-43.898 33.73-76.543 81.363-91.355 136.322h91.355V52.895z"
      fill="#0052b4"></path>
    <path d="M509.833 222.609H200.348V6.085a254.258 254.258 0 0 0-66.783 25.042v191.481H2.167C.742 233.539 0 244.683 0 256s.742 22.461 2.167 33.391h131.398v191.481a254.258 254.258 0 0 0 66.783 25.042V289.392h309.485C511.256 278.461 512 267.317 512 256s-.744-22.461-2.167-33.391z"
      fill="#d80027"></path>
  </symbol>
  <symbol xmlns="http://www.w3.org/2000/svg" viewBox="0 0 512 512" id="jpy">
    <circle cx="256" cy="256" r="256" fill="#f0f0f0"></circle>
    <circle cx="256" cy="256" r="111.304" fill="#d80027"></circle>
  </symbol>
  <symbol xmlns="http://www.w3.org/2000/svg" viewBox="0 0 512 512" id="krw">
    <circle cx="256" cy="256" r="256" fill="#f0f0f0"></circle>
    <path d="M345.043 256c0 22.261-39.866 77.913-89.043 77.913S166.957 278.261 166.957 256c0-49.178 39.866-89.043 89.043-89.043s89.043 39.865 89.043 89.043z" fill="#d80027"></path>
    <path d="M345.043 256c0 49.178-39.866 89.043-89.043 89.043S166.957 305.178 166.957 256" fill="#0052b4"></path>
    <path d="M350.442 334.705l23.61-23.61 15.741 15.74-23.61 23.61zm-39.357 39.355l23.61-23.612 15.741 15.741-23.61 23.611zm86.585 7.857l23.611-23.61 15.74 15.74-23.61 23.61zm-39.356 39.361l23.61-23.61 15.741 15.74-23.61 23.611zm15.741-62.965l23.61-23.61 15.741 15.74-23.61 23.61zm-39.346 39.354l23.61-23.61 15.741 15.74-23.61 23.611zm62.969-220.377l-62.963-62.963 15.741-15.74 62.962 62.962zm-62.965-15.732l-23.61-23.61 15.74-15.74 23.61 23.61zm39.347 39.349l-23.61-23.611 15.74-15.74 23.61 23.61zm7.855-86.571l-23.61-23.611 15.74-15.741 23.61 23.61zm39.368 39.352l-23.611-23.61 15.74-15.741 23.612 23.61zm-330.56 204.63l62.962 62.962-15.74 15.74-62.963-62.961zm62.957 15.732l23.611 23.611-15.74 15.74-23.61-23.61zm-39.35-39.347l23.611 23.611-15.74 15.741-23.611-23.61zm23.613-23.612l62.962 62.963-15.74 15.74-62.963-62.962zM153.684 90.72L90.72 153.683l-15.74-15.741 62.962-62.963zm23.603 23.605l-62.963 62.963-15.74-15.741 62.962-62.962zm23.625 23.622l-62.962 62.962-15.74-15.74 62.962-62.962z"></path>
  </symbol>
  <symbol xmlns="http://www.w3.org/2000/svg" viewBox="0 0 512 512" id="mxn">
    <circle cx="256" cy="256" r="256" fill="#f0f0f0"></circle>
    <path d="M512 256c0-101.494-59.065-189.19-144.696-230.598v461.195C452.935 445.19 512 357.494 512 256z" fill="#d80027"></path>
    <path d="M0 256c0 101.494 59.065 189.19 144.696 230.598V25.402C59.065 66.81 0 154.506 0 256zm189.217 0c0 36.883 29.9 66.783 66.783 66.783s66.783-29.9 66.783-66.783v-22.261H189.217V256z" fill="#6da544"></path>
    <path d="M345.043 211.478H278.26c0-12.294-9.967-22.261-22.261-22.261s-22.261 9.967-22.261 22.261h-66.783c0 12.295 10.709 22.261 23.002 22.261h-.741c0 12.295 9.966 22.261 22.261 22.261 0 12.295 9.966 22.261 22.261 22.261h44.522c12.295 0 22.261-9.966 22.261-22.261 12.295 0 22.261-9.966 22.261-22.261h-.742c12.295 0 23.003-9.966 23.003-22.261z"
      fill="#ff9811"></path>
  </symbol>
  <symbol xmlns="http://www.w3.org/2000/svg" viewBox="0 0 512 512" id="myr">
    <circle cx="256" cy="256" r="256" fill="#f0f0f0"></circle>
    <path d="M244.87 256H512c0-23.107-3.08-45.489-8.819-66.783H244.87V256zm0-133.565h229.556a257.328 257.328 0 0 0-59.069-66.783H244.87v66.783zM256 512c60.249 0 115.626-20.824 159.357-55.652H96.643C140.374 491.176 195.751 512 256 512zM37.574 389.565h436.852a254.492 254.492 0 0 0 28.755-66.783H8.819a254.46 254.46 0 0 0 28.755 66.783z"
      fill="#d80027"></path>
    <path d="M256 256V0C114.616 0 0 114.616 0 256h256z" fill="#0052b4"></path>
    <g fill="#ffda44">
      <path d="M170.234 219.13c-34.962 0-63.304-28.343-63.304-63.304s28.343-63.304 63.304-63.304c10.901 0 21.158 2.757 30.113 7.609-14.048-13.737-33.26-22.217-54.461-22.217-43.029 0-77.913 34.883-77.913 77.913s34.884 77.913 77.913 77.913c21.201 0 40.413-8.48 54.461-22.217-8.955 4.85-19.211 7.607-30.113 7.607z"></path>
      <path d="M188.073 111.304l11.239 23.502 25.381-5.864-11.366 23.439 20.412 16.187-25.414 5.729.071 26.051-20.323-16.298-20.324 16.298.07-26.051-25.414-5.729 20.412-16.187-11.367-23.439 25.383 5.864z"></path>
    </g>
  </symbol>
  <symbol xmlns="http://www.w3.org/2000/svg" viewBox="0 0 512 512" id="nok">
    <circle cx="256" cy="256" r="256" fill="#f0f0f0"></circle>
    <path d="M8.819 322.783c14.812 54.959 47.457 102.593 91.355 136.322V322.783H8.819zm224.92 188.243A259.29 259.29 0 0 0 256 512c118.279 0 217.805-80.221 247.181-189.217H233.739v188.243zm269.442-321.809C473.805 80.221 374.279 0 256 0c-7.502 0-14.923.342-22.261.974v188.243h269.442zM100.174 52.895c-43.898 33.73-76.543 81.363-91.355 136.322h91.355V52.895z"
      fill="#d80027"></path>
    <path d="M509.833 222.609H200.348V6.085a254.258 254.258 0 0 0-66.783 25.042v191.481H2.167C.742 233.539 0 244.683 0 256s.742 22.461 2.167 33.391h131.398v191.481a254.258 254.258 0 0 0 66.783 25.042V289.392h309.485C511.256 278.461 512 267.317 512 256s-.744-22.461-2.167-33.391z"
      fill="#0052b4"></path>
  </symbol>
  <symbol xmlns="http://www.w3.org/2000/svg" viewBox="0 0 512 512" id="nzd">
    <path d="M512 256c0 141.384-114.616 256-256 256S0 397.384 0 256C0 256.061 256 .028 256 0c141.384 0 256 114.616 256 256z" fill="#0052b4"></path>
    <g fill="#f0f0f0">
      <path d="M256 0h-.043.043zm-.685 256H256v-.685l-.685.685z"></path>
      <path d="M256 133.565V0h-.043C114.592.024 0 114.629 0 256h133.565v-75.211L208.777 256h46.539l.685-.685v-46.537l-75.213-75.213H256z"></path>
    </g>
    <g fill="#d80027">
      <path d="M129.515 33.391a257.222 257.222 0 0 0-96.124 96.124V256h66.783V100.174H256V33.391H129.515z"></path>
      <path d="M256 224.519l-90.953-90.953s-31.481.002-31.481 0v.002L255.999 256H256v-31.481zm187.33-34.56l5.525 17.006h17.881l-14.466 10.51 5.526 17.005-14.466-10.509-14.467 10.509 5.526-17.005-14.467-10.51h17.881zm-63.919 122.434l8.289 25.51h26.821l-21.7 15.764 8.29 25.509-21.7-15.765-21.7 15.765 8.29-25.509-21.7-15.764h26.821zm2.414-200.347l6.908 21.259h22.351L393 146.44l6.908 21.258-18.083-13.139-18.082 13.139 6.907-21.258-18.082-13.135h22.35zm-61.503 77.171l8.288 25.51h26.822l-21.7 15.764 8.29 25.509-21.7-15.765-21.7 15.765 8.29-25.509-21.7-15.764h26.821z"></path>
    </g>
  </symbol>
  <symbol xmlns="http://www.w3.org/2000/svg" viewBox="0 0 512 512" id="php">
    <circle cx="256" cy="256" r="256" fill="#f0f0f0"></circle>
    <path d="M256 0v256L74.98 437.02C121.307 483.346 185.307 512 256 512c141.384 0 256-114.616 256-256S256 0 256 0z" fill="#d80027"></path>
    <path d="M256 0C185.307 0 121.307 28.654 74.98 74.98L256 256h256C512 114.616 397.384 0 256 0z" fill="#0052b4"></path>
    <path d="M175.291 256l-31.264-14.706 16.649-30.279-33.95 6.495-4.302-34.297-23.648 25.224-23.647-25.224-4.303 34.297-33.949-6.496 16.649 30.28L22.261 256l31.265 14.706-16.649 30.279 33.952-6.494 4.299 34.296 23.648-25.224 23.648 25.224 4.302-34.296 33.948 6.495-16.648-30.279zM68.273 100.174l10.404 14.543 17.045-5.399-10.618 14.388 10.404 14.543-16.966-5.651-10.617 14.387.133-17.88-16.965-5.652 17.048-5.399zm0 264.841l10.404 14.543 17.045-5.4-10.618 14.389 10.404 14.543-16.966-5.651-10.617 14.387.133-17.88-16.965-5.652 17.048-5.399zm148.393-132.42l-10.403 14.543-17.046-5.401 10.618 14.389-10.404 14.544 16.966-5.652 10.618 14.387-.134-17.879 16.965-5.652-17.047-5.399z"
      fill="#ffda44"></path>
  </symbol>
  <symbol xmlns="http://www.w3.org/2000/svg" viewBox="0 0 512 512" id="pln">
    <circle cx="256" cy="256" r="256" fill="#f0f0f0"></circle>
    <path d="M512 256c0 141.384-114.616 256-256 256S0 397.384 0 256" fill="#d80027"></path>
  </symbol>
  <symbol xmlns="http://www.w3.org/2000/svg" viewBox="0 0 512 512" id="ron">
    <path d="M345.043 15.922C317.309 5.633 287.314 0 256 0c-31.314-.001-61.31 5.633-89.043 15.922l-22.261 240.077 22.261 240.077C194.689 506.368 224.685 512 256 512c31.313 0 61.31-5.632 89.043-15.924L367.303 256l-22.26-240.078z" fill="#ffda44"></path>
    <path d="M512 256c0-110.07-69.472-203.907-166.957-240.077v480.156C442.528 459.905 511.999 366.072 512 256z" fill="#d80027"></path>
    <path d="M0 255.999c0 110.073 69.472 203.906 166.955 240.079l.001-480.154C69.472 52.094 0 145.928 0 255.999z" fill="#0052b4"></path>
  </symbol>
  <symbol xmlns="http://www.w3.org/2000/svg" viewBox="0 0 473.68 473.68" id="rub">
    <circle cx="236.85" cy="236.849" r="236.83" fill="#fff"></circle>
    <path d="M460.143 157.873H314.218c6.339 50.593 6.376 106.339.123 156.995h146.113a236.303 236.303 0 0 0 13.219-78.026c.004-27.703-4.794-54.269-13.53-78.969z" fill="#2b479d"></path>
    <path d="M314.218 157.873H460.14a1.618 1.618 0 0 0-.075-.206C429.756 72.2 351.785 9.319 258.105.972c36.256 19.872 46.846 82.832 56.113 156.901z" fill="#efecec"></path>
    <path d="M258.113 472.697c93.848-8.362 171.927-71.46 202.12-157.156.079-.228.146-.453.228-.673H314.345c-9.196 74.47-19.831 137.874-56.232 157.829z" fill="#e63026"></path>
    <path d="M0 236.841c0 27.348 4.697 53.588 13.219 78.026h313.313c6.26-50.66 6.215-106.402-.116-156.995H13.534C4.798 182.573 0 209.139 0 236.841z" fill="#3757a6"></path>
    <path d="M13.608 157.668a3.348 3.348 0 0 1-.075.206h312.883C317.142 83.804 294.36 20.845 258.109.973c-7.012-.621-14.102-.972-21.274-.972C133.806 0 46.191 65.801 13.608 157.668z" fill="#efefef"></path>
    <path d="M326.532 314.867H13.219c.079.221.153.445.228.673C45.9 407.642 133.641 473.676 236.835 473.676c7.173 0 14.263-.352 21.274-.98 36.405-19.954 59.227-83.358 68.423-157.829z" fill="#e73b36"></path>
  </symbol>
  <symbol xmlns="http://www.w3.org/2000/svg" viewBox="0 0 512 512" id="sek">
    <circle cx="256" cy="256" r="256" fill="#ffda44"></circle>
    <path d="M200.349 222.609h309.484C493.47 97.002 386.067 0 256 0a256.902 256.902 0 0 0-55.652 6.085v216.524h.001zm-66.784-.001V31.127C63.271 69.481 12.95 139.832 2.167 222.609h131.398v-.001zm-.001 66.783H2.167c10.783 82.777 61.104 153.128 131.398 191.481l-.001-191.481zm66.784.001v216.523A256.902 256.902 0 0 0 256 512c130.067 0 237.47-97.002 253.833-222.609H200.348v.001z"
      fill="#0052b4"></path>
  </symbol>
  <symbol xmlns="http://www.w3.org/2000/svg" viewBox="0 0 512 512" id="sgd">
    <circle cx="256" cy="256" r="256" fill="#f0f0f0"></circle>
    <path d="M0 256.001C0 114.616 114.616 0 256 0s256 114.616 256 256.001" fill="#d80027"></path>
    <g fill="#f0f0f0">
      <path d="M155.826 133.564c0-37.298 26.213-68.456 61.217-76.101a78.208 78.208 0 0 0-16.696-1.811c-43.031 0-77.913 34.882-77.913 77.913s34.882 77.913 77.913 77.913c5.733 0 11.315-.637 16.696-1.812-35.004-7.645-61.217-38.803-61.217-76.102zM256 61.217l5.526 17.005h17.881L264.94 88.733l5.526 17.005L256 95.229l-14.466 10.509 5.526-17.005-14.466-10.511h17.88z"></path>
      <path d="M212.625 94.608l5.525 17.006h17.881l-14.466 10.51 5.526 17.005-14.466-10.509-14.468 10.509 5.527-17.005-14.467-10.51h17.881zm86.751 0l5.527 17.006h17.88l-14.467 10.51 5.527 17.005-14.467-10.509-14.466 10.509 5.526-17.005-14.466-10.51h17.88zm-16.695 50.087l5.526 17.006h17.88l-14.466 10.51 5.526 17.005-14.466-10.509-14.466 10.509 5.526-17.005-14.466-10.51h17.879zm-53.361 0l5.525 17.006h17.882l-14.467 10.51 5.527 17.005-14.467-10.509-14.467 10.509 5.526-17.005-14.466-10.51h17.881z"></path>
    </g>
  </symbol>
  <symbol xmlns="http://www.w3.org/2000/svg" viewBox="0 0 512 512" id="thb">
    <circle cx="256" cy="256" r="256" fill="#f0f0f0"></circle>
    <path d="M496.077 166.957H15.923C5.632 194.69 0 224.686 0 256s5.632 61.31 15.923 89.043h480.155C506.368 317.31 512 287.314 512 256s-5.632-61.31-15.923-89.043z" fill="#0052b4"></path>
    <path d="M256 0C178.409 0 108.886 34.524 61.939 89.043H450.06C403.114 34.524 333.591 0 256 0zm194.061 422.957H61.939C108.886 477.476 178.409 512 256 512s147.114-34.524 194.061-89.043z" fill="#d80027"></path>
  </symbol>
  <symbol xmlns="http://www.w3.org/2000/svg" viewBox="0 0 512 512" id="try">
    <circle cx="256" cy="256" r="256" fill="#d80027"></circle>
    <g fill="#f0f0f0">
      <path d="M245.518 209.186l21.005 28.945 34.017-11.03-21.038 28.92 21.002 28.944-34.005-11.072-21.037 28.92.022-35.761-34.006-11.072 34.018-11.03z"></path>
      <path d="M188.194 328.348c-39.956 0-72.348-32.392-72.348-72.348s32.392-72.348 72.348-72.348c12.458 0 24.18 3.151 34.414 8.696-16.055-15.702-38.012-25.392-62.24-25.392-49.178 0-89.043 39.866-89.043 89.043s39.866 89.043 89.043 89.043c24.23 0 46.186-9.691 62.24-25.392-10.234 5.547-21.956 8.698-34.414 8.698z"></path>
    </g>
  </symbol>
  <symbol xmlns="http://www.w3.org/2000/svg" viewBox="0 0 512 512" id="usd">
    <circle cx="256" cy="256" r="256" fill="#f0f0f0"></circle>
    <path d="M244.87 256H512c0-23.106-3.08-45.49-8.819-66.783H244.87V256zm0-133.565h229.556a257.35 257.35 0 0 0-59.07-66.783H244.87v66.783zM256 512c60.249 0 115.626-20.824 159.356-55.652H96.644C140.374 491.176 195.751 512 256 512zM37.574 389.565h436.852a254.474 254.474 0 0 0 28.755-66.783H8.819a254.474 254.474 0 0 0 28.755 66.783z"
      fill="#d80027"></path>
    <path d="M118.584 39.978h23.329l-21.7 15.765 8.289 25.509-21.699-15.765-21.699 15.765 7.16-22.037a257.407 257.407 0 0 0-49.652 55.337h7.475l-13.813 10.035a255.58 255.58 0 0 0-6.194 10.938l6.596 20.301-12.306-8.941a253.567 253.567 0 0 0-8.372 19.873l7.267 22.368h26.822l-21.7 15.765 8.289 25.509-21.699-15.765-12.998 9.444A258.468 258.468 0 0 0 0 256h256V0c-50.572 0-97.715 14.67-137.416 39.978zm9.918 190.422l-21.699-15.765L85.104 230.4l8.289-25.509-21.7-15.765h26.822l8.288-25.509 8.288 25.509h26.822l-21.7 15.765 8.289 25.509zm-8.289-100.083l8.289 25.509-21.699-15.765-21.699 15.765 8.289-25.509-21.7-15.765h26.822l8.288-25.509 8.288 25.509h26.822l-21.7 15.765zM220.328 230.4l-21.699-15.765L176.93 230.4l8.289-25.509-21.7-15.765h26.822l8.288-25.509 8.288 25.509h26.822l-21.7 15.765 8.289 25.509zm-8.289-100.083l8.289 25.509-21.699-15.765-21.699 15.765 8.289-25.509-21.7-15.765h26.822l8.288-25.509 8.288 25.509h26.822l-21.7 15.765zm0-74.574l8.289 25.509-21.699-15.765-21.699 15.765 8.289-25.509-21.7-15.765h26.822l8.288-25.509 8.288 25.509h26.822l-21.7 15.765z"
      fill="#0052b4"></path>
  </symbol>
  <symbol xmlns="http://www.w3.org/2000/svg" viewBox="0 0 512 512" id="zar">
    <circle cx="256" cy="256" r="256" fill="#f0f0f0"></circle>
    <path d="M74.98 437.02c-99.974-99.975-99.974-262.065 0-362.04C74.973 74.991 222.609 256 222.609 256L74.98 437.02z"></path>
    <path d="M222.609 256L33.953 128.513a255.118 255.118 0 0 0-15.439 31.763l95.509 95.725-95.506 95.73a254.82 254.82 0 0 0 15.426 31.741L222.609 256z" fill="#ffda44"></path>
    <path d="M509.833 222.609H222.602L74.978 74.984a256.992 256.992 0 0 0-41.025 53.53L161.192 256 33.943 383.47a256.966 256.966 0 0 0 41.035 53.545l147.624-147.624h287.231A258.529 258.529 0 0 0 512 256c0-11.317-.744-22.461-2.167-33.391z" fill="#6da544"></path>
    <path d="M100.138 459.077C143.307 492.259 197.344 512 256 512c118.279 0 217.805-80.221 247.181-189.217H236.433L100.138 459.077z" fill="#0052b4"></path>
    <path d="M503.181 189.217C473.805 80.221 374.279 0 256 0c-58.656 0-112.693 19.741-155.862 52.923l136.294 136.294h266.749z" fill="#d80027"></path>
  </symbol>
</svg>