<svg height="512pt" viewBox="0 -16 512 512" width="512pt" xmlns="http://www.w3.org/2000/svg"><path d="m472 296h-25.144531c10.960937-21.652344 17.144531-46.117188 17.144531-72 0-88.226562-71.777344-160-160-160-55.738281 0-104.902344 28.65625-133.558594 72h-34.441406c-4.417969 0-8 3.582031-8 8s3.582031 8 8 8h25.144531c-10.960937 21.652344-17.144531 46.117188-17.144531 72 0 88.226562 71.777344 160 160 160 55.738281 0 104.902344-28.65625 133.558594-72h34.441406c4.359375 0 8-3.640625 8-8s-3.640625-8-8-8zm-168 72c-79.402344 0-144-64.597656-144-144 0-20.644531 4.375-40.28125 12.230469-58.046875l3.925781 19.617187c.863281 4.324219 5.238281 7.191407 9.554688 6.242188 4.203124-.921875 6.976562-5.15625 6.132812-9.382812l-7.644531-38.234376c25.84375-38.671874 69.894531-64.195312 119.800781-64.195312 79.402344 0 144 64.597656 144 144 0 20.644531-4.375 40.28125-12.230469 58.046875l-3.925781-19.617187c-.863281-4.332032-5.078125-7.136719-9.414062-6.273438-4.332032.867188-7.140626 5.082031-6.273438 9.414062l7.644531 38.234376c-25.84375 38.671874-69.894531 64.195312-119.800781 64.195312zm0 0" fill="#ffd147"/><path d="m392 256h-384c-4.417969 0-8 3.582031-8 8v208c0 4.417969 3.582031 8 8 8h384c4.417969 0 8-3.582031 8-8v-208c0-4.417969-3.582031-8-8-8zm0 0" fill="#dcedec"/><path d="m40 448c-4.417969 0-8-3.582031-8-8v-184h-24c-4.417969 0-8 3.582031-8 8v208c0 4.417969 3.582031 8 8 8h384c4.417969 0 8-3.582031 8-8v-24zm0 0" fill="#badad9"/><path d="m360 320c-13.234375 0-24-10.765625-24-24 0-4.417969-3.582031-8-8-8h-256c-4.417969 0-8 3.582031-8 8 0 13.234375-10.765625 24-24 24-4.417969 0-8 3.582031-8 8v80c0 4.417969 3.582031 8 8 8 13.234375 0 24 10.765625 24 24 0 4.417969 3.582031 8 8 8h256c4.417969 0 8-3.582031 8-8 0-13.234375 10.765625-24 24-24 4.417969 0 8-3.582031 8-8v-80c0-4.417969-3.582031-8-8-8zm0 0" fill="#97c8c5"/><path d="m200 360c-4.410156 0-8-3.589844-8-8s3.589844-8 8-8h16c4.417969 0 8-3.582031 8-8s-3.582031-8-8-8h-8v-8c0-4.417969-3.582031-8-8-8s-8 3.582031-8 8v9.375c-9.3125 3.304688-16 12.195312-16 22.625 0 13.234375 10.765625 24 24 24 4.410156 0 8 3.589844 8 8s-3.589844 8-8 8h-16c-4.417969 0-8 3.582031-8 8s3.582031 8 8 8h8v8c0 4.417969 3.582031 8 8 8s8-3.582031 8-8v-9.375c9.3125-3.304688 16-12.195312 16-22.625 0-13.234375-10.765625-24-24-24zm0 0" fill="#fff"/><path d="m280 336c-17.644531 0-32 14.355469-32 32s14.355469 32 32 32 32-14.355469 32-32-14.355469-32-32-32zm0 0" fill="#52a39f"/><path d="m120 336c-17.644531 0-32 14.355469-32 32s14.355469 32 32 32 32-14.355469 32-32-14.355469-32-32-32zm0 0" fill="#52a39f"/><path d="m312 336c-17.644531 0-32 14.355469-32 32s14.355469 32 32 32 32-14.355469 32-32-14.355469-32-32-32zm0 0" fill="#74b6b2"/><path d="m88 336c-17.644531 0-32 14.355469-32 32s14.355469 32 32 32 32-14.355469 32-32-14.355469-32-32-32zm0 0" fill="#74b6b2"/><path d="m488 0h-240c-13.234375 0-24 10.765625-24 24v144c0 13.234375 10.765625 24 24 24h240c13.234375 0 24-10.765625 24-24v-144c0-13.234375-10.765625-24-24-24zm0 0" fill="#f0efef"/><path d="m248 144v-144c-13.234375 0-24 10.765625-24 24v144c0 13.234375 10.765625 24 24 24h240c13.234375 0 24-10.765625 24-24h-240c-13.234375 0-24-10.765625-24-24zm0 0" fill="#d3cecf"/><path d="m224 40h288v40h-288zm0 0" fill="#8b7e7f"/><path d="m224 40h24v40h-24zm0 0" fill="#7c6d6f"/><g fill="#d3cecf"><path d="m288 120h-32c-4.417969 0-8-3.582031-8-8s3.582031-8 8-8h32c4.417969 0 8 3.582031 8 8s-3.582031 8-8 8zm0 0"/><path d="m376 120h-56c-4.417969 0-8-3.582031-8-8s3.582031-8 8-8h56c4.417969 0 8 3.582031 8 8s-3.582031 8-8 8zm0 0"/><path d="m328 144h-72c-4.417969 0-8-3.582031-8-8s3.582031-8 8-8h72c4.417969 0 8 3.582031 8 8s-3.582031 8-8 8zm0 0"/></g></svg>