<?xml version="1.0" encoding="iso-8859-1"?><svg width="96" height="96" viewBox="0 0 96 96" xmlns="http://www.w3.org/2000/svg" xmlns:xlink="http://www.w3.org/1999/xlink"><svg viewBox="0 0 512 512" width="48" height="48" id="cz" xmlns="http://www.w3.org/2000/svg"><path d="M3.256 421.59L256 256 3.256 90.41C1.311 92.029 0 94.375 0 97.103v317.793c0 2.729 1.311 5.075 3.256 6.694z" fill="#41479b"/><path d="M3.256 421.59c1.53 1.274 3.425 2.134 5.571 2.134h494.345a8.829 8.829 0 008.828-8.828V256H256L3.256 421.59z" fill="#ff4b55"/><path d="M3.256 90.41c1.53-1.274 3.425-2.134 5.571-2.134h494.345A8.829 8.829 0 01512 97.104V256H256L3.256 90.41z" fill="#f5f5f5"/></svg><svg viewBox="0 0 512 512" width="48" height="48" id="eu" x="48" xmlns="http://www.w3.org/2000/svg"><path d="M455.111 71.111H56.889C25.472 71.111 0 96.569 0 128v256c0 31.431 25.472 56.889 56.889 56.889h398.222C486.528 440.889 512 415.431 512 384V128c0-31.431-25.472-56.889-56.889-56.889z" fill="#039"/><g fill="#fc0"><path d="M263.668 138.02l12.075-8.775h-14.919l-4.622-14.194-4.608 14.194h-14.919l12.075 8.775-4.622 14.194 12.075-8.775 12.075 8.775-4.61-14.194zM263.668 384.537l12.075-8.775h-14.919l-4.622-14.194-4.608 14.194h-14.919l12.075 8.775-4.622 14.194 12.075-8.775 12.075 8.775-4.61-14.194zM140.409 261.28l12.075-8.775h-14.919l-4.622-14.194-4.608 14.194h-14.919l12.075 8.775-4.622 14.194 12.075-8.775 12.075 8.775-4.61-14.194zM156.158 200.334l12.075-8.775h-14.919l-4.622-14.194-4.608 14.194h-14.919l12.075 8.775-4.622 14.194 12.075-8.775 12.075 8.775-4.61-14.194zM156.158 322.909l12.075-8.775h-14.919l-4.622-14.194-4.608 14.194h-14.919l12.075 8.775-4.622 14.194 12.075-8.775 12.075 8.775-4.61-14.194zM202.038 154.529l12.075-8.775h-14.919l-4.622-14.194-4.608 14.194h-14.919l12.075 8.775-4.622 14.194 12.075-8.775 12.075 8.775-4.61-14.194zM202.038 368.832l12.075-8.775h-14.919l-4.622-14.194-4.608 14.194h-14.919l12.075 8.775-4.622 14.194 12.075-8.775 12.075 8.775-4.61-14.194zM371.593 261.28l-12.075-8.775h14.919l4.622-14.194 4.608 14.194h14.919l-12.075 8.775 4.622 14.194-12.075-8.775-12.075 8.775 4.61-14.194zM355.842 200.334l-12.075-8.775h14.919l4.622-14.194 4.608 14.194h14.919l-12.075 8.775 4.622 14.194-12.075-8.775-12.075 8.775 4.61-14.194zM355.842 322.909l-12.075-8.775h14.919l4.622-14.194 4.608 14.194h14.919l-12.075 8.775 4.622 14.194-12.075-8.775-12.075 8.775 4.61-14.194zM309.962 154.529l-12.075-8.775h14.919l4.622-14.194 4.608 14.194h14.919l-12.075 8.775 4.622 14.194-12.075-8.775-12.075 8.775 4.61-14.194zM309.962 368.832l-12.075-8.775h14.919l4.622-14.194 4.608 14.194h14.919l-12.075 8.775 4.622 14.194-12.075-8.775-12.075 8.775 4.61-14.194z"/></g></svg><svg viewBox="0 0 512 512" width="48" height="48" id="us" y="48" xmlns="http://www.w3.org/2000/svg"><path d="M1.811 397.594c.37 1.436.84 2.83 1.309 4.21 1.266 3.684 2.802 7.241 4.736 10.569.015.028.015.072.03.072h.007c9.856 16.939 27.989 28.444 48.996 28.444h398.222c21.006 0 39.14-11.506 48.996-28.444h.007c.014 0 .014-.044.028-.059 1.92-3.314 3.456-6.87 4.722-10.54.484-1.408.953-2.816 1.323-4.267.341-1.294.597-2.602.839-3.91.556-3.068.955-6.173.975-9.431V128c0-3.314-.398-6.528-.981-9.671a51.543 51.543 0 00-.825-3.897c-.384-1.465-.853-2.887-1.337-4.295-1.266-3.669-2.788-7.211-4.722-10.524a.109.109 0 00-.028-.057h.002c-9.856-16.939-27.989-28.444-48.996-28.444H256V270.22H0V384c0 3.313.402 6.512.97 9.654.242 1.323.514 2.646.841 3.94z" fill="#eee"/><g fill="#b22334"><path d="M504.108 99.556c-9.856-16.939-27.989-28.444-48.996-28.444H256v28.444h248.108zM0 384h512v-28.444H0V384zM256 241.778h256v28.444H256zM256 184.889h256v28.444H256zM0 298.667h512v28.444H0zM455.111 440.889c21.006 0 39.14-11.506 48.996-28.444H7.893c9.856 16.939 27.989 28.444 48.996 28.444h398.222zM256 128h256v28.444H256z"/></g><g fill="#eee"><path d="M0 128c0-3.314.427-6.5.967-9.657C.398 121.486 0 124.686 0 128M7.889 99.556c-.014.028-.028.043-.028.071.014-.029.014-.043.028-.071zM1.816 114.409c.356-1.451.853-2.83 1.308-4.224-.469 1.394-.938 2.788-1.308 4.224"/></g><path d="M256 71.111H56.889C25.472 71.111 0 96.583 0 128v142.222h256V71.111z" fill="#3c3b6e"/><g fill="#fff"><path d="M28.465 109.872l8.789 6.386-3.356 10.325 8.775-6.386 8.789 6.386-3.371-10.325 8.804-6.386H46.029l-3.356-10.325-3.342 10.325H28.465zM56.909 138.316l8.789 6.386-3.371 10.325 8.789-6.386 8.789 6.386-3.371-10.325 8.804-6.386H74.473l-3.356-10.325-3.342 10.325H56.909zM113.798 138.316l8.789 6.386-3.371 10.325 8.789-6.386 8.789 6.386-3.371-10.325 8.804-6.386h-10.866l-3.356-10.325-3.342 10.325h-10.865zM170.687 138.316l8.789 6.386-3.371 10.325 8.789-6.386 8.789 6.386-3.371-10.325 8.804-6.386H188.25l-3.356-10.325-3.342 10.325h-10.865zM56.909 195.208l8.789 6.386-3.371 10.325 8.789-6.386 8.789 6.386-3.371-10.325 8.804-6.386H74.473l-3.356-10.325-3.342 10.325H56.909zM113.798 195.208l8.789 6.386-3.371 10.325 8.789-6.386 8.789 6.386-3.371-10.325 8.804-6.386h-10.866l-3.356-10.325-3.342 10.325h-10.865zM170.687 195.208l8.789 6.386-3.371 10.325 8.789-6.386 8.789 6.386-3.371-10.325 8.804-6.386H188.25l-3.356-10.325-3.342 10.325h-10.865zM85.353 109.872l8.789 6.386-3.371 10.325 8.789-6.386 8.789 6.386-3.371-10.325 8.804-6.386h-10.866L99.56 99.547l-3.342 10.325H85.353zM142.242 109.872l8.789 6.386-3.371 10.325 8.789-6.386 8.789 6.386-3.371-10.325 8.804-6.386h-10.866l-3.356-10.325-3.342 10.325h-10.865zM199.131 109.872l8.789 6.386-3.371 10.325 8.789-6.386 8.789 6.386-3.371-10.325 8.804-6.386h-10.866l-3.356-10.325-3.342 10.325h-10.865zM28.465 166.764l8.789 6.386-3.356 10.325 8.775-6.386 8.789 6.386-3.371-10.325 8.804-6.386H46.029l-3.356-10.325-3.342 10.325H28.465zM90.778 183.473l8.789-6.386 8.775 6.386-3.356-10.325 8.789-6.386h-10.852l-3.356-10.311-3.356 10.311H85.359l8.775 6.386-3.356 10.325zM142.242 166.764l8.789 6.386-3.371 10.325 8.789-6.386 8.789 6.386-3.371-10.325 8.804-6.386h-10.866l-3.356-10.325-3.342 10.325h-10.865zM199.131 166.764l8.789 6.386-3.371 10.325 8.789-6.386 8.789 6.386-3.371-10.325 8.804-6.386h-10.866l-3.356-10.325-3.342 10.325h-10.865zM28.465 223.653l8.789 6.386-3.356 10.325 8.775-6.386 8.789 6.386-3.371-10.325 8.804-6.386H46.029l-3.356-10.325-3.342 10.325H28.465zM90.778 240.361l8.789-6.386 8.775 6.386-3.356-10.325 8.789-6.386h-10.852l-3.356-10.311-3.356 10.311H85.359l8.775 6.386-3.356 10.325zM142.242 223.653l8.789 6.386-3.371 10.325 8.789-6.386 8.789 6.386-3.371-10.325 8.804-6.386h-10.866l-3.356-10.325-3.342 10.325h-10.865zM199.131 223.653l8.789 6.386-3.371 10.325 8.789-6.386 8.789 6.386-3.371-10.325 8.804-6.386h-10.866l-3.356-10.325-3.342 10.325h-10.865z"/></g></svg><svg viewBox="0 0 512 512" width="48" height="48" id="ru" x="48" y="48" xmlns="http://www.w3.org/2000/svg"><path d="M512 384c0 31.418-25.473 56.889-56.889 56.889H56.89C25.472 440.889 0 415.417 0 384v-56.889h512V384z" fill="#ce2028"/><path d="M512 327.111H0V184.89h512V327.11z" fill="#22408c"/><path d="M455.111 71.111H56.89C25.472 71.111 0 96.582 0 128v56.889h512V128c0-31.417-25.473-56.889-56.889-56.889" fill="#eee"/></svg></svg>