<svg height="370pt" viewBox="0 -16 370.58024 370" width="370pt" xmlns="http://www.w3.org/2000/svg"><path d="m330.582031 338.890625h-134.203125c-22.078125-.023437-39.972656-17.917969-40-40v-34.902344c0-5.519531 4.476563-10 10-10 5.523438 0 10 4.480469 10 10v34.902344c.015625 11.039063 8.960938 19.984375 20 20h134.203125c11.039063-.015625 19.984375-8.960937 20-20v-258.601563c-.015625-11.039062-8.960937-19.984374-20-20h-134.203125c-11.039062.015626-19.984375 8.960938-20 20v35.652344c0 5.523438-4.476562 10-10 10-5.523437 0-10-4.476562-10-10v-35.652344c.027344-22.078124 17.921875-39.972656 40-40h134.203125c22.078125.027344 39.972657 17.921876 40 40v258.601563c-.027343 22.082031-17.921875 39.976563-40 40zm0 0" fill="#e48e66"/><path d="m270.992188 159.589844h-238.894532l51.300782-59.113282c2.402343-2.65625 3.203124-6.394531 2.097656-9.796874-1.105469-3.40625-3.949219-5.960938-7.453125-6.699219-3.503907-.738281-7.132813.453125-9.519531 3.125-.078126.085937-.152344.171875-.222657.257812l-64.679687 74.527344c-2.375 1.964844-3.7109378 4.914063-3.61718775 7.992187.09374995 3.078126 1.60156275 5.945313 4.08984375 7.761719l64.683594 64.6875c3.917968 3.839844 10.195312 3.8125 14.074218-.066406 3.882813-3.878906 3.910157-10.160156.070313-14.074219l-48.601563-48.601562h236.671876c5.519531 0 10-4.476563 10-10 0-5.523438-4.480469-10-10-10zm0 0" fill="#e2d574"/></svg>