<svg height="480pt" viewBox="0 0 480 480" width="480pt" xmlns="http://www.w3.org/2000/svg"><g fill="#599072"><path d="m272 64h80v80h-80zm0 0"/><path d="m272 176h80v80h-80zm0 0"/><path d="m272 288h80v80h-80zm0 0"/><path d="m272 400h80v80h-80zm0 0"/></g><path d="m272 64h56v80h-56zm0 0" fill="#70b48f"/><path d="m272 176h56v80h-56zm0 0" fill="#70b48f"/><path d="m272 288h56v80h-56zm0 0" fill="#70b48f"/><path d="m272 400h56v80h-56zm0 0" fill="#70b48f"/><path d="m80 272h80v32h-80zm0 0" fill="#bc8f6f"/><path d="m120 480c-22.089844 0-40-17.910156-40-40v-104h80v104c0 22.089844-17.910156 40-40 40zm0 0" fill="#bc8f6f"/><path d="m80 272h56v32h-56zm0 0" fill="#cb9e78"/><path d="m108 477.96875c16.183594-5.121094 28-20.082031 28-37.96875v-104h-56v104c0 17.878906 11.816406 32.839844 28 37.96875zm0 0" fill="#cb9e78"/><path d="m96 240h48v32h-48zm0 0" fill="#656665"/><path d="m96 304h48v32h-48zm0 0" fill="#656665"/><path d="m96 240h32v32h-32zm0 0" fill="#999"/><path d="m96 304h32v32h-32zm0 0" fill="#999"/><path d="m240 144v-48h-18.894531c-2.707031-11.414062-7.3125-22.070312-13.425781-31.679688l16.320312-16.320312-32-32-16.320312 16.320312c-9.609376-6.113281-20.265626-10.71875-31.679688-13.425781v-18.894531h-48v18.894531c-11.414062 2.707031-22.097656 7.265625-31.710938 13.394531l-16.289062-16.289062-32 32 16.289062 16.289062c-6.128906 9.613282-10.6875 20.296876-13.394531 31.710938h-18.894531v48h18.894531c2.707031 11.414062 7.3125 22.070312 13.425781 31.679688l-16.320312 16.320312 32 32 16.320312-16.320312c9.609376 6.113281 20.265626 10.71875 31.679688 13.425781v18.894531h48v-18.894531c11.414062-2.707031 22.097656-7.265625 31.710938-13.394531l16.289062 16.289062 32-32-16.289062-16.289062c6.128906-9.613282 10.6875-20.296876 13.394531-31.710938zm0 0" fill="#5789d6"/><path d="m192 120c0 39.765625-32.234375 72-72 72s-72-32.234375-72-72 32.234375-72 72-72 72 32.234375 72 72zm0 0" fill="#d9d7d8"/><path d="m160 120c0 22.089844-17.910156 40-40 40s-40-17.910156-40-40 17.910156-40 40-40 40 17.910156 40 40zm0 0" fill="#fff"/><path d="m368 128h112v16h-112zm0 0" fill="#5b6673"/><path d="m368 96h112v16h-112zm0 0" fill="#5b6673"/><path d="m368 64h64v16h-64zm0 0" fill="#5b6673"/><path d="m313.054688 139.96875c-2.109376 0-4.152344-.832031-5.65625-2.34375l-16-16 11.3125-11.3125 8.59375 8.589844 26.808593-46.902344 13.886719 7.9375-32 56c-1.230469 2.167969-3.414062 3.628906-5.878906 3.957031-.351563.050781-.714844.074219-1.066406.074219zm0 0" fill="#efedee"/><path d="m368 240h112v16h-112zm0 0" fill="#5b6673"/><path d="m368 208h112v16h-112zm0 0" fill="#5b6673"/><path d="m368 176h64v16h-64zm0 0" fill="#5b6673"/><path d="m313.054688 251.96875c-2.109376 0-4.152344-.832031-5.65625-2.34375l-16-16 11.3125-11.3125 8.59375 8.589844 26.808593-46.902344 13.886719 7.9375-32 56c-1.230469 2.167969-3.414062 3.628906-5.878906 3.957031-.351563.050781-.714844.074219-1.066406.074219zm0 0" fill="#efedee"/><path d="m368 352h112v16h-112zm0 0" fill="#5b6673"/><path d="m368 320h112v16h-112zm0 0" fill="#5b6673"/><path d="m368 288h64v16h-64zm0 0" fill="#5b6673"/><path d="m313.054688 363.96875c-2.109376 0-4.152344-.832031-5.65625-2.34375l-16-16 11.3125-11.3125 8.59375 8.589844 26.808593-46.902344 13.886719 7.9375-32 56c-1.230469 2.167969-3.414062 3.628906-5.878906 3.957031-.351563.050781-.714844.074219-1.066406.074219zm0 0" fill="#efedee"/><path d="m368 464h112v16h-112zm0 0" fill="#5b6673"/><path d="m368 432h112v16h-112zm0 0" fill="#5b6673"/><path d="m368 400h64v16h-64zm0 0" fill="#5b6673"/><path d="m313.054688 475.96875c-2.109376 0-4.152344-.832031-5.65625-2.34375l-16-16 11.3125-11.3125 8.59375 8.589844 26.808593-46.902344 13.886719 7.9375-32 56c-1.230469 2.167969-3.414062 3.628906-5.878906 3.957031-.351563.050781-.714844.074219-1.066406.074219zm0 0" fill="#efedee"/></svg>