<svg height="480pt" viewBox="0 0 480 480" width="480pt" xmlns="http://www.w3.org/2000/svg"><path d="m16 128v-64h256v64" fill="#bf4653"/><path d="m0 128h288v352h-288zm0 0" fill="#dc6068"/><path d="m224 312v-64h240v64" fill="#cb9e78"/><path d="m208 312h272v168h-272zm0 0" fill="#dbaf89"/><path d="m184 376c0 44.183594-35.816406 80-80 80s-80-35.816406-80-80 35.816406-80 80-80 80 35.816406 80 80zm0 0" fill="#eebc5a"/><path d="m160 376c0 30.929688-25.070312 56-56 56s-56-25.070312-56-56 25.070312-56 56-56 56 25.070312 56 56zm0 0" fill="#f8cf6a"/><path d="m104 200c0 13.253906-10.746094 24-24 24s-24-10.746094-24-24 10.746094-24 24-24 24 10.746094 24 24zm0 0" fill="#ca5057"/><path d="m232 200c0 13.253906-10.746094 24-24 24s-24-10.746094-24-24 10.746094-24 24-24 24 10.746094 24 24zm0 0" fill="#ca5057"/><path d="m312 368c0 13.253906-10.746094 24-24 24s-24-10.746094-24-24 10.746094-24 24-24 24 10.746094 24 24zm0 0" fill="#bc8f6f"/><path d="m424 368c0 13.253906-10.746094 24-24 24s-24-10.746094-24-24 10.746094-24 24-24 24 10.746094 24 24zm0 0" fill="#bc8f6f"/><path d="m16 75.3125 20.6875 20.6875-20.6875 20.6875v11.3125h11.3125l26.34375-26.34375c3.128906-3.128906 3.128906-8.183594 0-11.3125l-26.34375-26.34375h-11.3125zm0 0" fill="#dc6068"/><path d="m272 64h-11.3125l-26.34375 26.34375c-3.128906 3.128906-3.128906 8.183594 0 11.3125l26.34375 26.34375h11.3125v-11.3125l-20.6875-20.6875 20.6875-20.6875zm0 0" fill="#dc6068"/><path d="m464 248h-11.3125l-26.34375 26.34375c-3.128906 3.128906-3.128906 8.183594 0 11.3125l26.34375 26.34375h11.3125v-11.3125l-20.6875-20.6875 20.6875-20.6875zm0 0" fill="#dbaf89"/><path d="m216 200v-128c0-39.703125-32.296875-72-72-72s-72 32.296875-72 72v128h16v-128c0-30.871094 25.128906-56 56-56s56 25.128906 56 56v128zm0 0" fill="#666d77"/><path d="m224 259.3125 20.6875 20.6875-20.6875 20.6875v11.3125h11.3125l26.34375-26.34375c3.128906-3.128906 3.128906-8.183594 0-11.3125l-26.34375-26.34375h-11.3125zm0 0" fill="#dbaf89"/><g fill="#666d77"><path d="m344 192c-35.289062 0-64 28.710938-64 64v112h16v-112c0-26.472656 21.527344-48 48-48s48 21.527344 48 48v112h16v-112c0-35.289062-28.710938-64-64-64zm0 0"/><path d="m112 416c13.230469 0 24-10.769531 24-24s-10.769531-24-24-24h-16c-4.414062 0-8-3.585938-8-8s3.585938-8 8-8h40v-16h-24v-15.359375c-2.617188-.375-5.28125-.640625-8-.640625s-5.382812.265625-8 .640625v15.359375c-13.230469 0-24 10.769531-24 24s10.769531 24 24 24h16c4.414062 0 8 3.585938 8 8s-3.585938 8-8 8h-40v16h24v15.359375c2.617188.375 5.28125.640625 8 .640625s5.382812-.265625 8-.640625zm0 0"/></g></svg>